<?xml version="1.0" encoding="UTF-8" standalone="no"?>
<!-- Created with Inkscape (http://www.inkscape.org/) -->

<svg
   xmlns:dc="http://purl.org/dc/elements/1.1/"
   xmlns:cc="http://creativecommons.org/ns#"
   xmlns:rdf="http://www.w3.org/1999/02/22-rdf-syntax-ns#"
   xmlns:svg="http://www.w3.org/2000/svg"
   xmlns="http://www.w3.org/2000/svg"
   xmlns:sodipodi="http://sodipodi.sourceforge.net/DTD/sodipodi-0.dtd"
   xmlns:inkscape="http://www.inkscape.org/namespaces/inkscape"
   width="744.09448819"
   height="1052.3622047"
   id="svg2"
   version="1.1"
   inkscape:version="0.48.2 r9819"
   sodipodi:docname="threading.svg">
  <defs
     id="defs4">
    <marker
       inkscape:stockid="Arrow1Send"
       orient="auto"
       refY="0.0"
       refX="0.0"
       id="Arrow1Send"
       style="overflow:visible;">
      <path
         id="path4468"
         d="M 0.0,0.0 L 5.0,-5.0 L -12.5,0.0 L 5.0,5.0 L 0.0,0.0 z "
         style="fill-rule:evenodd;stroke:#000000;stroke-width:1.0pt;marker-start:none;"
         transform="scale(0.2) rotate(180) translate(6,0)" />
    </marker>
    <marker
       inkscape:stockid="Arrow2Mend"
       orient="auto"
       refY="0.0"
       refX="0.0"
       id="Arrow2Mend"
       style="overflow:visible;">
      <path
         id="path4480"
         style="font-size:12.0;fill-rule:evenodd;stroke-width:0.62500000;stroke-linejoin:round;"
         d="M 8.7185878,4.0337352 L -2.2072895,0.016013256 L 8.7185884,-4.0017078 C 6.9730900,-1.6296469 6.9831476,1.6157441 8.7185878,4.0337352 z "
         transform="scale(0.6) rotate(180) translate(0,0)" />
    </marker>
    <marker
       inkscape:stockid="Arrow1Lend"
       orient="auto"
       refY="0.0"
       refX="0.0"
       id="Arrow1Lend"
       style="overflow:visible;">
      <path
         id="path4456"
         d="M 0.0,0.0 L 5.0,-5.0 L -12.5,0.0 L 5.0,5.0 L 0.0,0.0 z "
         style="fill-rule:evenodd;stroke:#000000;stroke-width:1.0pt;marker-start:none;"
         transform="scale(0.8) rotate(180) translate(12.5,0)" />
    </marker>
    <marker
       inkscape:stockid="Arrow2Mend"
       orient="auto"
       refY="0"
       refX="0"
       id="Arrow2Mend-7"
       style="overflow:visible">
      <path
         inkscape:connector-curvature="0"
         id="path4480-7"
         style="font-size:12px;fill-rule:evenodd;stroke-width:0.625;stroke-linejoin:round"
         d="M 8.7185878,4.0337352 -2.2072895,0.01601326 8.7185884,-4.0017078 c -1.7454984,2.3720609 -1.7354408,5.6174519 -6e-7,8.035443 z"
         transform="scale(-0.6,-0.6)" />
    </marker>
    <marker
       inkscape:stockid="Arrow2Mend"
       orient="auto"
       refY="0"
       refX="0"
       id="Arrow2Mend-3"
       style="overflow:visible">
      <path
         inkscape:connector-curvature="0"
         id="path4480-2"
         style="font-size:12px;fill-rule:evenodd;stroke-width:0.625;stroke-linejoin:round"
         d="M 8.7185878,4.0337352 -2.2072895,0.01601326 8.7185884,-4.0017078 c -1.7454984,2.3720609 -1.7354408,5.6174519 -6e-7,8.035443 z"
         transform="scale(-0.6,-0.6)" />
    </marker>
    <marker
       inkscape:stockid="Arrow2Mend"
       orient="auto"
       refY="0"
       refX="0"
       id="Arrow2Mend-2"
       style="overflow:visible">
      <path
         inkscape:connector-curvature="0"
         id="path4480-24"
         style="font-size:12px;fill-rule:evenodd;stroke-width:0.625;stroke-linejoin:round"
         d="M 8.7185878,4.0337352 -2.2072895,0.01601326 8.7185884,-4.0017078 c -1.7454984,2.3720609 -1.7354408,5.6174519 -6e-7,8.035443 z"
         transform="scale(-0.6,-0.6)" />
    </marker>
    <marker
       inkscape:stockid="Arrow2Mend"
       orient="auto"
       refY="0"
       refX="0"
       id="marker5309"
       style="overflow:visible">
      <path
         inkscape:connector-curvature="0"
         id="path5311"
         style="font-size:12px;fill-rule:evenodd;stroke-width:0.625;stroke-linejoin:round"
         d="M 8.7185878,4.0337352 -2.2072895,0.01601326 8.7185884,-4.0017078 c -1.7454984,2.3720609 -1.7354408,5.6174519 -6e-7,8.035443 z"
         transform="scale(-0.6,-0.6)" />
    </marker>
    <marker
       inkscape:stockid="Arrow2Mend"
       orient="auto"
       refY="0"
       refX="0"
       id="marker5313"
       style="overflow:visible">
      <path
         inkscape:connector-curvature="0"
         id="path5315"
         style="font-size:12px;fill-rule:evenodd;stroke-width:0.625;stroke-linejoin:round"
         d="M 8.7185878,4.0337352 -2.2072895,0.01601326 8.7185884,-4.0017078 c -1.7454984,2.3720609 -1.7354408,5.6174519 -6e-7,8.035443 z"
         transform="scale(-0.6,-0.6)" />
    </marker>
  </defs>
  <sodipodi:namedview
     id="base"
     pagecolor="#ffffff"
     bordercolor="#666666"
     borderopacity="1.0"
     inkscape:pageopacity="0.0"
     inkscape:pageshadow="2"
     inkscape:zoom="1.3565034"
     inkscape:cx="276.81392"
     inkscape:cy="603.72741"
     inkscape:document-units="px"
     inkscape:current-layer="layer1"
     showgrid="false"
     inkscape:window-width="1920"
     inkscape:window-height="1176"
     inkscape:window-x="0"
     inkscape:window-y="24"
     inkscape:window-maximized="1" />
  <metadata
     id="metadata7">
    <rdf:RDF>
      <cc:Work
         rdf:about="">
        <dc:format>image/svg+xml</dc:format>
        <dc:type
           rdf:resource="http://purl.org/dc/dcmitype/StillImage" />
        <dc:title></dc:title>
      </cc:Work>
    </rdf:RDF>
  </metadata>
  <g
     inkscape:label="Layer 1"
     inkscape:groupmode="layer"
     id="layer1">
    <rect
       style="fill:none;stroke:#0047da;stroke-width:2;stroke-linecap:round;stroke-miterlimit:4;stroke-opacity:1;stroke-dasharray:none"
       id="rect4238"
       width="182.83421"
       height="374.97635"
       x="45.874767"
       y="190.71439" />
    <rect
       style="fill:none;stroke:#004700;stroke-width:2;stroke-linecap:round;stroke-miterlimit:4;stroke-opacity:1;stroke-dasharray:none"
       id="rect4238-7"
       width="182.83421"
       height="374.97635"
       x="298.85083"
       y="190.04953" />
    <text
       xml:space="preserve"
       style="font-size:24px;font-style:normal;font-weight:normal;line-height:125%;letter-spacing:0px;word-spacing:0px;fill:#000000;fill-opacity:1;stroke:none;font-family:Sans"
       x="92.414383"
       y="217.30846"
       id="text4260"
       sodipodi:linespacing="125%"><tspan
         sodipodi:role="line"
         id="tspan4262"
         x="92.414383"
         y="217.30846" /></text>
    <text
       xml:space="preserve"
       style="font-size:22px;font-style:normal;font-weight:normal;text-align:center;line-height:125%;letter-spacing:0px;word-spacing:0px;text-anchor:middle;fill:#000000;fill-opacity:1;stroke:none;font-family:Sans"
       x="136.29822"
       y="218.63815"
       id="text4264"
       sodipodi:linespacing="125%"><tspan
         sodipodi:role="line"
         x="136.29822"
         y="218.63815"
         id="tspan4268">Heap A</tspan></text>
    <text
       xml:space="preserve"
       style="font-size:22px;font-style:normal;font-weight:normal;line-height:125%;letter-spacing:0px;word-spacing:0px;fill:#000000;fill-opacity:1;stroke:none;font-family:Sans"
       x="350.15125"
       y="221.29756"
       id="text4272"
       sodipodi:linespacing="125%"><tspan
         sodipodi:role="line"
         id="tspan4274"
         x="350.15125"
         y="221.29756">Heap B</tspan></text>
    <rect
       style="fill:none;stroke:#000000;stroke-width:2;stroke-linecap:round;stroke-miterlimit:4;stroke-opacity:1;stroke-dasharray:none"
       id="rect4276"
       width="68.479721"
       height="55.18269"
       x="61.831207"
       y="253.87531" />
    <rect
       style="fill:none;stroke:#000000;stroke-width:2;stroke-linecap:round;stroke-miterlimit:4;stroke-opacity:1;stroke-dasharray:none"
       id="rect4276-8"
       width="68.479721"
       height="55.18269"
       x="61.831207"
       y="325.79007" />
    <rect
       style="fill:none;stroke:#000000;stroke-width:2;stroke-linecap:round;stroke-miterlimit:4;stroke-opacity:1;stroke-dasharray:none"
       id="rect4276-9"
       width="68.479721"
       height="55.18269"
       x="61.831207"
       y="397.70483" />
    <rect
       style="fill:none;stroke:#000000;stroke-width:2;stroke-linecap:round;stroke-miterlimit:4;stroke-opacity:1;stroke-dasharray:none"
       id="rect4276-94"
       width="68.479721"
       height="55.18269"
       x="61.831207"
       y="469.61966" />
    <rect
       style="fill:none;stroke:#000000;stroke-width:2;stroke-linecap:round;stroke-miterlimit:4;stroke-opacity:1;stroke-dasharray:none"
       id="rect4276-5"
       width="68.479721"
       height="55.18269"
       x="144.27283"
       y="254.04152" />
    <rect
       style="fill:none;stroke:#000000;stroke-width:2;stroke-linecap:round;stroke-miterlimit:4;stroke-opacity:1;stroke-dasharray:none"
       id="rect4276-8-1"
       width="68.479721"
       height="55.18269"
       x="144.27283"
       y="325.9563" />
    <rect
       style="fill:none;stroke:#000000;stroke-width:2;stroke-linecap:round;stroke-miterlimit:4;stroke-opacity:1;stroke-dasharray:none"
       id="rect4276-9-0"
       width="68.479721"
       height="55.18269"
       x="144.27283"
       y="397.87103" />
    <rect
       style="fill:none;stroke:#000000;stroke-width:2;stroke-linecap:round;stroke-miterlimit:4;stroke-opacity:1;stroke-dasharray:none"
       id="rect4276-94-9"
       width="68.479721"
       height="55.18269"
       x="144.27283"
       y="469.78586" />
    <path
       style="fill:none;stroke:#000000;stroke-width:1px;stroke-linecap:butt;stroke-linejoin:miter;stroke-opacity:1;marker-end:url(#Arrow2Mend)"
       d="m 96.06146,309.72284 0,14.62673"
       id="path4448"
       inkscape:connector-curvature="0" />
    <path
       style="fill:none;stroke:#000000;stroke-width:1px;stroke-linecap:butt;stroke-linejoin:miter;stroke-opacity:1;marker-end:url(#Arrow2Mend)"
       d="m 96.06146,381.78493 0,14.62673"
       id="path4448-6"
       inkscape:connector-curvature="0" />
    <path
       style="fill:none;stroke:#000000;stroke-width:1px;stroke-linecap:butt;stroke-linejoin:miter;stroke-opacity:1;marker-end:url(#Arrow2Mend)"
       d="m 96.06146,453.05922 0,14.62673"
       id="path4448-4"
       inkscape:connector-curvature="0" />
    <path
       style="fill:none;stroke:#000000;stroke-width:1px;stroke-linecap:butt;stroke-linejoin:miter;stroke-opacity:1;marker-end:url(#Arrow2Mend)"
       d="m 178.50308,309.00365 0,14.62673"
       id="path4448-63"
       inkscape:connector-curvature="0" />
    <path
       style="fill:none;stroke:#000000;stroke-width:1px;stroke-linecap:butt;stroke-linejoin:miter;stroke-opacity:1;marker-end:url(#Arrow2Mend)"
       d="m 178.50308,381.06574 0,14.62673"
       id="path4448-6-1"
       inkscape:connector-curvature="0" />
    <path
       style="fill:none;stroke:#000000;stroke-width:1px;stroke-linecap:butt;stroke-linejoin:miter;stroke-opacity:1;marker-end:url(#Arrow2Mend)"
       d="m 178.50308,453.26028 0,14.62673"
       id="path4448-4-4"
       inkscape:connector-curvature="0" />
    <rect
       y="254.73251"
       x="316.37109"
       height="55.18269"
       width="68.479721"
       id="rect5389"
       style="fill:none;stroke:#000000;stroke-width:2;stroke-linecap:round;stroke-miterlimit:4;stroke-opacity:1;stroke-dasharray:none" />
    <rect
       y="326.64728"
       x="316.37109"
       height="55.18269"
       width="68.479721"
       id="rect5391"
       style="fill:none;stroke:#000000;stroke-width:2;stroke-linecap:round;stroke-miterlimit:4;stroke-opacity:1;stroke-dasharray:none" />
    <rect
       y="398.56204"
       x="316.37109"
       height="55.18269"
       width="68.479721"
       id="rect5393"
       style="fill:none;stroke:#000000;stroke-width:2;stroke-linecap:round;stroke-miterlimit:4;stroke-opacity:1;stroke-dasharray:none" />
    <rect
       y="470.47687"
       x="316.37109"
       height="55.18269"
       width="68.479721"
       id="rect5395"
       style="fill:none;stroke:#000000;stroke-width:2;stroke-linecap:round;stroke-miterlimit:4;stroke-opacity:1;stroke-dasharray:none" />
    <rect
       y="254.89871"
       x="398.81271"
       height="55.18269"
       width="68.479721"
       id="rect5397"
       style="fill:none;stroke:#000000;stroke-width:2;stroke-linecap:round;stroke-miterlimit:4;stroke-opacity:1;stroke-dasharray:none" />
    <rect
       y="326.81351"
       x="398.81271"
       height="55.18269"
       width="68.479721"
       id="rect5399"
       style="fill:none;stroke:#000000;stroke-width:2;stroke-linecap:round;stroke-miterlimit:4;stroke-opacity:1;stroke-dasharray:none" />
    <rect
       y="398.72824"
       x="398.81271"
       height="55.18269"
       width="68.479721"
       id="rect5401"
       style="fill:none;stroke:#000000;stroke-width:2;stroke-linecap:round;stroke-miterlimit:4;stroke-opacity:1;stroke-dasharray:none" />
    <rect
       y="470.64307"
       x="398.81271"
       height="55.18269"
       width="68.479721"
       id="rect5403"
       style="fill:none;stroke:#000000;stroke-width:2;stroke-linecap:round;stroke-miterlimit:4;stroke-opacity:1;stroke-dasharray:none" />
    <path
       inkscape:connector-curvature="0"
       id="path5405"
       d="m 350.60131,310.58002 0,14.62673"
       style="fill:none;stroke:#000000;stroke-width:1px;stroke-linecap:butt;stroke-linejoin:miter;stroke-opacity:1;marker-end:url(#Arrow2Mend)" />
    <path
       inkscape:connector-curvature="0"
       id="path5407"
       d="m 350.60131,382.64211 0,14.62673"
       style="fill:none;stroke:#000000;stroke-width:1px;stroke-linecap:butt;stroke-linejoin:miter;stroke-opacity:1;marker-end:url(#Arrow2Mend)" />
    <path
       inkscape:connector-curvature="0"
       id="path5409"
       d="m 350.60131,453.9164 0,14.62673"
       style="fill:none;stroke:#000000;stroke-width:1px;stroke-linecap:butt;stroke-linejoin:miter;stroke-opacity:1;marker-end:url(#Arrow2Mend)" />
    <path
       inkscape:connector-curvature="0"
       id="path5411"
       d="m 433.04293,309.86083 0,14.62673"
       style="fill:none;stroke:#000000;stroke-width:1px;stroke-linecap:butt;stroke-linejoin:miter;stroke-opacity:1;marker-end:url(#Arrow2Mend)" />
    <path
       inkscape:connector-curvature="0"
       id="path5413"
       d="m 433.04293,381.92292 0,14.62673"
       style="fill:none;stroke:#000000;stroke-width:1px;stroke-linecap:butt;stroke-linejoin:miter;stroke-opacity:1;marker-end:url(#Arrow2Mend)" />
    <path
       inkscape:connector-curvature="0"
       id="path5415"
       d="m 433.04293,454.11746 0,14.62673"
       style="fill:none;stroke:#000000;stroke-width:1px;stroke-linecap:butt;stroke-linejoin:miter;stroke-opacity:1;marker-end:url(#Arrow2Mend)" />
    <text
       xml:space="preserve"
       style="font-size:14px;font-style:normal;font-weight:normal;text-align:center;line-height:125%;letter-spacing:0px;word-spacing:0px;text-anchor:middle;fill:#000000;fill-opacity:1;stroke:none;font-family:Sans"
       x="95.996384"
       y="540.47339"
       id="text5447"
       sodipodi:linespacing="125%"><tspan
         sodipodi:role="line"
         id="tspan5449"
         x="95.996384"
         y="540.47339">Young</tspan><tspan
         sodipodi:role="line"
         x="95.996384"
         y="557.97339"
         id="tspan5451">Generation</tspan><tspan
         sodipodi:role="line"
         x="95.996384"
         y="575.47339"
         id="tspan5453" /></text>
    <text
       xml:space="preserve"
       style="font-size:14px;font-style:normal;font-weight:normal;text-align:center;line-height:125%;letter-spacing:0px;word-spacing:0px;text-anchor:middle;fill:#000000;fill-opacity:1;stroke:none;font-family:Sans"
       x="178.90802"
       y="540.99463"
       id="text5455"
       sodipodi:linespacing="125%"><tspan
         sodipodi:role="line"
         id="tspan5457"
         x="178.90802"
         y="540.99463">Old</tspan><tspan
         sodipodi:role="line"
         x="178.90802"
         y="558.49463"
         id="tspan5459">Generation</tspan></text>
    <text
       sodipodi:linespacing="125%"
       id="text5461"
       y="542.03717"
       x="350.89822"
       style="font-size:14px;font-style:normal;font-weight:normal;text-align:center;line-height:125%;letter-spacing:0px;word-spacing:0px;text-anchor:middle;fill:#000000;fill-opacity:1;stroke:none;font-family:Sans"
       xml:space="preserve"><tspan
         y="542.03717"
         x="350.89822"
         id="tspan5463"
         sodipodi:role="line">Young</tspan><tspan
         id="tspan5465"
         y="559.53717"
         x="350.89822"
         sodipodi:role="line">Generation</tspan><tspan
         id="tspan5467"
         y="577.03717"
         x="350.89822"
         sodipodi:role="line" /></text>
    <text
       sodipodi:linespacing="125%"
       id="text5469"
       y="542.55841"
       x="433.80984"
       style="font-size:14px;font-style:normal;font-weight:normal;text-align:center;line-height:125%;letter-spacing:0px;word-spacing:0px;text-anchor:middle;fill:#000000;fill-opacity:1;stroke:none;font-family:Sans"
       xml:space="preserve"><tspan
         y="542.55841"
         x="433.80984"
         id="tspan5471"
         sodipodi:role="line">Old</tspan><tspan
         id="tspan5473"
         y="560.05841"
         x="433.80984"
         sodipodi:role="line">Generation</tspan></text>
    <rect
       style="fill:#008f00;fill-opacity:1;stroke:none"
       id="rect5478"
       width="54.212254"
       height="6.25526"
       x="68.807861"
       y="261.59308" />
    <rect
       style="fill:#008f00;fill-opacity:1;stroke:none"
       id="rect5478-4"
       width="54.212254"
       height="6.25526"
       x="68.807861"
       y="279.31631" />
    <rect
       style="fill:#008f00;fill-opacity:1;stroke:none"
       id="rect5478-4-9"
       width="54.212254"
       height="6.25526"
       x="68.807861"
       y="297.03955" />
    <rect
       style="fill:#bf2c00;fill-opacity:1;stroke:none"
       id="rect5478-4-0"
       width="54.212254"
       height="6.25526"
       x="68.807861"
       y="287.65665" />
    <rect
       style="fill:#bf2c00;fill-opacity:1;stroke:none"
       id="rect5478-4-0-5"
       width="54.212254"
       height="6.25526"
       x="68.807861"
       y="270.97598" />
    <rect
       style="fill:#008f00;fill-opacity:1;stroke:none"
       id="rect5478-2"
       width="54.212254"
       height="6.25526"
       x="322.9278"
       y="261.07181" />
    <rect
       style="fill:#008f00;fill-opacity:1;stroke:none"
       id="rect5478-1"
       width="54.212254"
       height="6.25526"
       x="322.9278"
       y="271.49722" />
    <rect
       style="fill:#008f00;fill-opacity:1;stroke:none"
       id="rect5478-3"
       width="54.212254"
       height="6.25526"
       x="322.9278"
       y="281.9227" />
    <path
       style="fill:none;stroke:#000000;stroke-width:1px;stroke-linecap:butt;stroke-linejoin:miter;stroke-opacity:1;marker-end:url(#marker5313)"
       d="m 126.66901,266.28452 185.57271,-0.52127"
       id="path5580"
       inkscape:connector-curvature="0" />
    <path
       style="fill:none;stroke:#000000;stroke-width:1px;stroke-linecap:butt;stroke-linejoin:miter;stroke-opacity:1;marker-end:url(#marker5313)"
       d="m 127.19028,281.92267 185.57271,-7.2978"
       id="path5582"
       inkscape:connector-curvature="0" />
    <path
       style="fill:none;stroke:#000000;stroke-width:1px;stroke-linecap:butt;stroke-linejoin:miter;stroke-opacity:1;marker-end:url(#marker5313)"
       d="M 128.7541,300.68845 310.15664,284.00776"
       id="path5584"
       inkscape:connector-curvature="0" />
    <path
       style="fill:none;stroke:#000000;stroke-width:1px;stroke-linecap:butt;stroke-linejoin:miter;stroke-opacity:1"
       d="m 71.414217,264.72071 c -0.695029,0 -1.403555,0.1363 -2.085086,0 -0.240958,-0.0482 -0.301485,-0.41138 -0.521272,-0.52127 -0.155413,-0.0777 -0.347515,0 -0.521272,0 -0.347514,0 -0.695029,0 -1.042543,0 -0.868786,0 -1.737572,0 -2.606358,0 -3.12763,0 -6.25526,0 -9.38289,0 -1.216301,0 -2.432601,0 -3.648902,0 -0.441335,0 -1.804848,-0.0934 -2.085086,0 -0.23312,0.0777 -0.288152,0.44356 -0.521272,0.52127 -2.372977,0 -0.02981,-0.24573 -1.563815,0.52127 -0.155413,0.0777 -0.347515,0 -0.521272,0 -0.775869,0 -0.665347,-0.0777 -1.563815,0.52127 -0.204459,0.13631 -0.316812,0.38497 -0.521271,0.52127 -0.323279,0.21552 -0.695029,0.34752 -1.042544,0.52127 -0.347514,0.17376 -0.673948,0.39841 -1.042543,0.52128 -0.164841,0.0549 -0.356431,-0.055 -0.521272,0 -0.297892,0.0993 -2.962184,1.39837 -3.12763,1.56381 -0.274734,0.27473 -0.288152,0.73172 -0.521271,1.04254 -0.294876,0.39317 -0.695029,0.69503 -1.042544,1.04255 -0.868786,0.86878 -1.737572,1.73757 -2.606358,2.60636 -0.274431,0.27443 -1.424614,1.28541 -1.563815,1.56381 -0.07771,0.15541 0.07771,0.36586 0,0.52127 -0.109894,0.21979 -0.384965,0.31681 -0.521272,0.52127 -0.215519,0.32328 -0.347514,0.69503 -0.521271,1.04255 -0.173757,0.34751 -0.427039,0.66561 -0.521272,1.04254 -0.08428,0.33714 0.06815,0.70178 0,1.04254 -0.10776,0.5388 -0.413512,1.02502 -0.521272,1.56382 -0.06815,0.34076 0.06815,0.70178 0,1.04254 -0.107759,0.5388 -0.413512,1.02502 -0.521271,1.56382 -0.06815,0.34076 0.06815,0.70177 0,1.04254 -0.10776,0.5388 -0.413512,1.02502 -0.521272,1.56382 -0.06815,0.34076 0.08429,0.7054 0,1.04254 -0.09423,0.37693 -0.445074,0.66155 -0.521271,1.04254 -0.170383,0.85192 0,1.73757 0,2.60636 0,2.08509 0,4.17017 0,6.25526 0,1.2163 0,2.4326 0,3.6489 0,0.69503 0,1.39006 0,2.08509 0,0.34751 -0.06815,0.70178 0,1.04254 0.107759,0.5388 0.413512,1.02502 0.521271,1.56382 0.06815,0.34076 0,0.69503 0,1.04254 0,0.69503 0,1.39006 0,2.08509 0,0.34751 -0.08428,0.7054 0,1.04254 0.09423,0.37693 0.427039,0.66561 0.521272,1.04254 0.126427,0.50571 -0.164841,1.0693 0,1.56382 0.122865,0.36859 0.398407,0.67395 0.521271,1.04254 0.184637,0.55391 -0.184636,1.53118 0,2.08509 0.122865,0.36859 0.305753,0.71926 0.521272,1.04254 0.136307,0.20446 0.443565,0.28815 0.521272,0.52127 0.109894,0.32968 -0.06815,0.70178 0,1.04255 0.107759,0.53879 0.347514,1.04254 0.521271,1.56381 0.173758,0.52127 0.275542,1.07236 0.521272,1.56382 0.280175,0.56035 0.762368,1.00346 1.042543,1.56381 2.924061,5.84812 -2.775,-3.94402 1.563815,3.6489 0.310827,0.54395 0.795757,0.98798 1.042544,1.56382 0.282211,0.65849 0.165828,1.46306 0.521271,2.08508 0.365749,0.64006 1.091878,0.99749 1.563815,1.56382 0.802139,0.96257 1.302356,2.14922 2.085087,3.12763 0.307012,0.38377 0.789689,0.62112 1.042543,1.04254 0.2827,0.47117 0.191591,1.12424 0.521272,1.56382 0.23312,0.31082 0.731717,0.28815 1.042543,0.52127 0.393168,0.29488 0.695029,0.69503 1.042544,1.04254 0.868786,0.86879 1.737572,1.73758 2.606358,2.60636 0.347514,0.34752 0.649375,0.74767 1.042543,1.04254 0.80523,0.60393 2.259589,0.98513 3.12763,1.56382 0.20446,0.13631 0.288152,0.44356 0.521272,0.52127 0.329681,0.10989 0.712862,-0.10989 1.042543,0 0.23312,0.0777 0.301484,0.41138 0.521272,0.52127 0.155413,0.0777 0.365858,-0.0777 0.521271,0 0.219788,0.1099 0.301485,0.41138 0.521272,0.52127 0.155413,0.0777 0.365859,-0.0777 0.521272,0 0.219787,0.1099 0.288152,0.44357 0.521271,0.52128 0.329682,0.10989 0.705405,-0.0843 1.042544,0 0.376932,0.0942 0.665611,0.42703 1.042543,0.52127 0.337139,0.0843 0.701777,-0.0682 1.042543,0 0.538799,0.10776 1.030753,0.388 1.563815,0.52127 0.859538,0.21488 1.746821,0.30639 2.606359,0.52127 3.12763,0.78191 0,0.52127 4.691445,1.56382 0.508858,0.11308 1.047782,-0.0737 1.563815,0 0.709219,0.10131 1.378414,0.40349 2.085086,0.52127 0.514179,0.0857 1.042543,0 1.563815,0"
       id="path6568"
       inkscape:connector-curvature="0" />
    <path
       style="fill:none;stroke:#000000;stroke-width:1px;stroke-linecap:butt;stroke-linejoin:miter;stroke-opacity:1"
       d="m 68.286587,282.96522 c -3.78139,5.04185 -0.09507,-0.33113 -2.085086,3.6489 -3.129819,6.25963 0.82399,-2.24211 -2.085087,2.60636 -0.282699,0.47116 -0.275542,1.07235 -0.521272,1.56381 -0.280175,0.56035 -0.731717,1.01987 -1.042543,1.56382 -0.926998,1.62224 -0.930545,2.26345 -2.085087,3.6489 -0.471937,0.56632 -1.091877,0.99749 -1.563815,1.56381 -0.401069,0.48129 -0.651177,1.07461 -1.042543,1.56382 -0.307012,0.38376 -0.735531,0.65877 -1.042543,1.04254 -0.782731,0.97841 -1.282948,2.16506 -2.085087,3.12763 -0.471937,0.56632 -1.091878,0.99749 -1.563815,1.56382 -0.401069,0.48128 -0.634829,1.08814 -1.042543,1.56381 -0.40686,1.65241 -2.619268,2.098 -3.648902,3.12763 -0.442996,0.443 -0.678403,1.05402 -1.042543,1.56381 -0.393529,0.55095 -2.196866,2.82992 -2.606358,3.64891 -0.24573,0.49146 -0.275542,1.07235 -0.521272,1.56381 -0.280175,0.56035 -0.695029,1.04254 -1.042543,1.56382 -0.695029,1.04254 -1.440434,2.0532 -2.085087,3.12763 -1.36642,2.27736 0.449299,-0.37733 -1.042543,2.60635 -0.280175,0.56035 -0.762369,1.00347 -1.042544,1.56382 -0.245729,0.49146 -0.275541,1.07236 -0.521271,1.56381 -0.280175,0.56035 -0.919679,0.9495 -1.042544,1.56382 -0.410336,2.05168 -0.210896,4.18609 -0.521271,6.25526 -0.212548,1.41699 -0.793537,2.75914 -1.042544,4.17017 -0.588921,3.33722 -0.521271,6.55208 -0.521271,9.90416 0,1.04255 0,2.08509 0,3.12763 0,0.69503 -0.114262,1.39952 0,2.08509 0.06387,0.38325 0.445074,0.66156 0.521271,1.04254 0.10223,0.51115 -0.143204,1.0626 0,1.56382 0.213477,0.74717 0.769698,1.3575 1.042544,2.08509 0.251551,0.6708 0.26972,1.41428 0.521271,2.08508 0.272846,0.72759 0.769698,1.3575 1.042544,2.08509 0.251551,0.6708 0.2552,1.41991 0.521271,2.08509 0.432893,1.08223 1.090421,2.06249 1.563815,3.12763 0.446321,1.00422 0.634409,2.10729 1.042544,3.12763 0.288595,0.72148 0.854077,1.33122 1.042543,2.08508 0.08429,0.33714 -0.08429,0.70541 0,1.04255 0.09423,0.37693 0.376974,0.6818 0.521272,1.04254 0.204067,0.51017 0.317204,1.05365 0.521271,1.56381 0.144298,0.36075 0.376974,0.6818 0.521272,1.04255 0.408135,1.02033 0.695029,2.08508 1.042543,3.12763 0.173757,0.52127 0.275542,1.07235 0.521272,1.56381 0.280175,0.56035 0.762368,1.00347 1.042543,1.56382 0.49146,0.98292 0.634409,2.10729 1.042544,3.12763 0.288595,0.72148 0.854077,1.33122 1.042543,2.08508 0.08428,0.33714 -0.08429,0.70541 0,1.04255 0.09423,0.37693 0.347514,0.69503 0.521272,1.04254 0.513379,1.02676 1.137642,2.0622 1.563814,3.12763 0.408135,1.02034 0.551084,2.14471 1.042544,3.12763 2.617545,5.23509 -0.656544,-2.74824 2.085086,3.6489 1.253169,2.92406 -0.412002,0.19122 1.563815,3.6489 0.310827,0.54395 0.762369,1.00347 1.042544,1.56382 0.24573,0.49146 0.275542,1.07235 0.521271,1.56381 0.280175,0.56035 0.695029,1.04255 1.042544,1.56382 0.695029,1.04254 1.390057,2.08508 2.085086,3.12763 0.695029,1.04254 1.390058,2.08508 2.085087,3.12763 0.347514,0.52127 0.599548,1.12082 1.042543,1.56381 0.274735,0.27474 0.809424,0.21045 1.042544,0.52127 0.329681,0.43958 0.275541,1.07236 0.521271,1.56382 0.231012,0.46202 1.247468,1.08929 1.563815,1.56381 0.21552,0.32328 0.305753,0.71927 0.521272,1.04255 0.136306,0.20446 0.347514,0.34751 0.521272,0.52127 0.173757,0.17376 0.301484,0.41138 0.521271,0.52127 0.155413,0.0777 0.398407,-0.12286 0.521272,0 0.122865,0.12287 -0.122865,0.39841 0,0.52127 0.122865,0.12287 0.365858,-0.0777 0.521272,0 2.169407,1.08471 -0.557258,-0.036 0.521271,1.04255 0.122865,0.12286 0.365859,-0.0777 0.521272,0 0.219787,0.10989 0.288152,0.44356 0.521271,0.52127 0.329682,0.10989 0.712863,-0.1099 1.042544,0 0.466239,0.15541 0.602968,0.82275 1.042543,1.04254 0.310826,0.15541 0.731717,-0.15541 1.042543,0 0.219788,0.1099 0.301485,0.41138 0.521272,0.52127 0.310826,0.15542 0.731717,-0.15541 1.042543,0 1.288274,0.64414 -0.179931,0.52127 1.042544,0.52127"
       id="path6570"
       inkscape:connector-curvature="0" />
    <path
       style="fill:none;stroke:#000000;stroke-width:1px;stroke-linecap:butt;stroke-linejoin:miter;stroke-opacity:1;marker-mid:none"
       d="m 160.0304,355.42198 c 0,15.12266 0.58079,-2.44218 -1.04254,7.2978 -0.19996,1.19975 0.18494,2.44674 0,3.6489 -0.16711,1.08616 -0.71937,2.07729 -1.04255,3.12763 -0.37201,1.20903 -0.77749,2.41201 -1.04254,3.6489 -0.25744,1.20138 -0.245,2.45172 -0.52127,3.6489 -0.32726,1.4181 -1.49541,4.31875 -2.08509,5.73399 -0.50896,1.22151 -0.97202,2.46531 -1.56381,3.6489 -0.28018,0.56035 -0.69503,1.04255 -1.04255,1.56382 -0.76264,1.14396 -1.64418,2.32618 -2.08508,3.6489 -0.28018,0.84053 -0.32908,1.74147 -0.52128,2.60636 -0.15541,0.69936 -0.32445,1.39623 -0.52127,2.08509 -0.15095,0.52832 -0.40207,1.02743 -0.52127,1.56381 -0.22928,1.03176 -0.21757,2.11528 -0.52127,3.12763 -0.22329,0.74429 -0.75395,1.3636 -1.04254,2.08509 -0.81627,2.04067 -1.1756,4.25439 -2.08509,6.25526 -0.41925,0.92235 -1.07178,1.72069 -1.56382,2.60635 -0.37737,0.67928 -0.65701,1.41041 -1.04254,2.08509 -0.62165,1.08789 -1.52474,2.00693 -2.08509,3.12763 -1.06629,2.1326 0.17906,1.13578 -1.56381,3.12763 -5.51283,6.30038 0.27257,-0.79384 -5.21272,4.69145 -0.44299,0.44299 -0.65117,1.0746 -1.04254,1.56381 -0.30701,0.38377 -0.69503,0.69503 -1.04254,1.04254 -0.34752,0.34752 -0.64938,0.74767 -1.04255,1.04255 -0.62165,0.46624 -1.43853,0.6115 -2.08508,1.04254 -0.20446,0.13631 -0.28816,0.44357 -0.52128,0.52127 -0.32968,0.1099 -0.71286,-0.10989 -1.04254,0 -0.23312,0.0777 -0.30148,0.41138 -0.52127,0.52127 -0.31083,0.15542 -0.71286,-0.10989 -1.04254,0 -0.3686,0.12287 -0.66561,0.42704 -1.04255,0.52128 -0.33714,0.0843 -0.69503,0 -1.04254,0 -0.17376,0 -0.36586,-0.0777 -0.52127,0 -0.21979,0.10989 -0.28815,0.44356 -0.52127,0.52127 -0.32968,0.10989 -0.69503,0 -1.04255,0 -0.34751,0 -0.69503,0 -1.04254,0 -1.39006,0 -2.78012,0 -4.17017,0 -0.17376,0 -0.39841,-0.12287 -0.52128,0 -0.12286,0.12286 0,0.34751 0,0.52127"
       id="path6572"
       inkscape:connector-curvature="0" />
    <text
       xml:space="preserve"
       style="font-size:14px;font-style:normal;font-weight:normal;line-height:125%;letter-spacing:0px;word-spacing:0px;fill:#000000;fill-opacity:1;stroke:none;font-family:Sans"
       x="244.47641"
       y="255.8591"
       id="text6966"
       sodipodi:linespacing="125%"><tspan
         sodipodi:role="line"
         id="tspan6968"
         x="244.47641"
         y="255.8591">Copy</tspan></text>
  </g>
</svg>
